<?xml version="1.0" encoding="utf-8"?>
<!-- Generator: Adobe Illustrator 27.9.0, SVG Export Plug-In . SVG Version: 6.00 Build 0)  -->
<svg version="1.1" id="Layer_1" xmlns="http://www.w3.org/2000/svg" xmlns:xlink="http://www.w3.org/1999/xlink" x="0px" y="0px"
	 viewBox="0 0 111 124.7" style="enable-background:new 0 0 111 124.7;" xml:space="preserve">
<style type="text/css">
	.st0{fill:#FFFFFF;}
</style>
<g>
	<path class="st0" d="M44.32,1.14c1.7-0.52,3.46-0.82,5.22-1.05c3.26-0.29,6.56,0.12,9.72,0.93c2.03,0.47,3.98,1.21,5.9,2.01
		c1.63,0.64,3.13,1.55,4.7,2.31c2,1.03,3.74,2.48,5.59,3.76c6.07,4.49,11.3,10.19,14.94,16.83c2.08,3.82,3.67,7.89,5.04,12.02
		c0.64,1.66,1.05,3.39,1.51,5.1c1,3.93,1.75,7.93,2.17,11.97c0.17,1.27,0.27,2.54,0.48,3.8c0.08,0.5,0.08,1,0.12,1.5
		c0.13,2.11,0.35,4.22,0.39,6.34c0.15,3.86,0.27,7.73,0.16,11.59c-0.03,0.83-0.06,1.66-0.06,2.5c-0.05,3.15-0.45,6.29-0.35,9.44
		c0.08,2.06,0.33,4.15,1.11,6.07c0.78,1.79,1.82,3.52,3.34,4.78c1.21,0.99,2.72,1.59,4.27,1.8c0.68,0.11,1.37,0.17,2.05,0.26
		c-0.67,0.43-1.49,0.42-2.25,0.46c-3.18,0.09-6.42-0.98-8.8-3.1c-1.61-1.27-2.64-3.11-3.39-4.98c-0.05-0.14-0.15-0.25-0.24-0.35
		c-1.18,3.75-3.12,7.22-5.43,10.39c-2.1,2.69-4.34,5.33-7.1,7.39c-0.43,0.55-1.01,0.93-1.54,1.37c-1.53,1.2-3.11,2.35-4.79,3.35
		c-1.75,1.07-3.53,2.09-5.4,2.96c-2.08,0.97-4.19,1.88-6.4,2.5c-2.36,0.71-4.87,1.49-7.35,0.92c-0.02-0.21-0.03-0.42-0.05-0.63
		c0.53-0.77,1.27-1.36,2.1-1.78c1.89-1.09,3.89-1.95,5.89-2.82c-1.7,0.02-3.4,0.14-5.1,0.03c-1.17-0.15-2.32-0.42-3.44-0.76
		c-1.23-0.35-2.33-1.02-3.37-1.75c-1.5-1.27-2.56-3.04-3.06-4.93c-0.31-1.9-0.17-3.96,0.76-5.68c0.62-1.07,1.32-2.09,2-3.13
		c-0.62,1.32-1.46,2.55-1.86,3.97c-0.44,1.57-0.42,3.27,0.1,4.82c0.63,1.7,1.99,3.15,3.71,3.76c1.51,0.53,3.15,0.53,4.73,0.37
		c1.2-0.08,2.33-0.49,3.46-0.87c3.62-1.31,7.06-3.21,9.92-5.79c1.04-0.93,2.01-1.92,2.92-2.97c0.35-0.4,0.62-0.87,0.97-1.26
		c2.58-3.17,4.22-6.98,5.6-10.8c0.41-1.44,0.82-2.89,1.15-4.35c0.41-2.06,0.7-4.16,0.84-6.26c0.04-1.37,0.15-2.74,0.16-4.11
		c0.04-4.3-0.46-8.59-1.35-12.8c-0.84-3.98-2.05-7.87-3.67-11.6c-0.86-2.05-1.95-3.98-3.09-5.89c-1.65-2.76-3.49-5.43-5.72-7.76
		c-1.13-1.2-2.23-2.48-3.66-3.33c1.31,1.5,2.69,2.95,3.87,4.56c1.97,2.75,3.87,5.58,5.29,8.66c0.77,1.76,1.65,3.48,2.27,5.31
		c1.77,5.06,2.71,10.44,2.57,15.81c-0.05,1.25,0,2.51-0.27,3.73c-0.26,1.75-0.57,3.49-1.12,5.17c-0.38,1.16-0.81,2.31-1.52,3.31
		c-0.06-0.24-0.13-0.49-0.19-0.73c0.85-1.62,1.05-3.46,1.36-5.24c0.43-4,0.41-8.12-0.64-12.03c-0.52-2.07-1.33-4.05-2.15-6.01
		c-0.92-2.11-2.17-4.06-3.5-5.94c-0.73-1.04-1.59-1.98-2.38-2.96c-0.56-0.73-1.26-1.34-1.92-1.98c-1.31-1.22-2.64-2.44-4.13-3.44
		c-3.03-2.06-6.44-3.49-9.88-4.72c-2.13-0.74-4.29-1.4-6.42-2.15c-3.44-1.18-6.91-2.35-10.07-4.18c-0.99-0.63-1.95-1.32-2.9-2.03
		c-0.54-0.46-1.02-0.98-1.52-1.48c-0.46-0.5-0.98-0.98-1.31-1.59c-0.98-1.63-1.94-3.32-2.24-5.22c-0.9,0.03-1.4,0.88-1.78,1.58
		c-1.23,2.62-1.75,5.57-1.5,8.45c0.08,0.67,0.15,1.35,0.42,1.97c0.38,0.91,0.7,1.84,1.2,2.69c1.07,1.83,2.66,3.3,3.59,5.22
		c0.67,1.71,0.45,3.6,0.21,5.38c-0.16,1.04-0.32,2.09-0.25,3.14c-0.03,0.66,0.63,1.13,1.22,1.21c1.11,0.14,2.14-0.38,3.22-0.51
		c0.11,0.24,0.22,0.49,0.33,0.73c-0.24,0.99-0.39,2.01-0.42,3.03c-1.64-1.51-3.71-2.48-5.86-2.98c-1.83-0.42-3.73-0.61-5.61-0.4
		c-1.61,0.17-3.23,0.42-4.77,0.95c-1.37,0.53-2.71,1.16-3.94,1.96c-1.45,0.93-2.68,2.17-3.69,3.55c-0.84,1.16-1.58,2.42-1.99,3.81
		c-0.8,2.97-0.79,6.21,0.28,9.11c1.18,3.58,3.2,6.84,5.62,9.71c0.66,0.8,1.38,1.55,1.89,2.46c0.27,0.43,0.27,0.95,0.3,1.44
		c0.01,0.82-0.03,1.66-0.22,2.46c-0.54,2.48-0.93,5.04-0.59,7.58c0.28,2.17,1.08,4.23,1.98,6.2c0.23,0.52,0.61,0.95,0.91,1.43
		c0.61,0.98,1.19,1.99,1.89,2.91c1.21,1.66,2.59,3.19,3.98,4.7c1.04,1.11,2.01,2.29,2.77,3.62c-0.67,0.25-1.39,0.05-1.99-0.27
		c-1.66-0.83-3.08-2.05-4.6-3.1c-1.3-0.9-2.45-1.99-3.65-3.02c-2.5-2.28-4.87-4.71-7.11-7.26c-2.23-2.51-4.18-5.24-6.01-8.04
		c-2.25-3.5-4.18-7.24-5.41-11.23C1,81.45,0.62,79.83,0.34,78.2c-0.77-4.82-0.26-9.91,1.82-14.36c0.38-0.83,0.78-1.65,1.21-2.45
		c1-1.67,2.12-3.27,3.44-4.71c1.1-1.35,2.4-2.5,3.73-3.62c1.14-1.01,2.4-1.9,3.47-3c1.85-2.04,3.32-4.45,4.15-7.08
		c0.83-2.61,1.06-5.35,1.29-8.07c0.17-2.78,0.31-5.56,0.48-8.34c0.12-1.16,0.34-2.31,0.63-3.45c0.56-1.6,1.11-3.23,2.04-4.67
		c0.45-0.65,0.93-1.29,1.45-1.89c1.13-1.2,2.5-2.13,3.84-3.07c1.02-0.77,1.64-1.92,2.51-2.84C31.56,9.4,32.71,8.13,34,7
		c1.54-1.26,3.13-2.48,4.85-3.48C40.59,2.57,42.39,1.67,44.32,1.14z"/>
	<path class="st0" d="M57.5,57.13c0.45-0.29,1.04-0.27,1.51-0.02c0.81,0.39,1.31,1.2,1.68,1.98c0.8,1.54,0.98,3.32,0.96,5.03
		c-0.01,1.01-0.17,2.01-0.37,2.99c-0.11,0.78-0.43,1.52-0.7,2.25c-0.71,1.77-1.61,3.49-2.83,4.96c-0.52,0.63-1.03,1.26-1.6,1.85
		c-0.85,0.71-1.68,1.45-2.53,2.16c-0.26,0.22-0.59,0.36-0.81,0.63c-0.99,1.13-2.12,2.12-3.14,3.22c-1.17,1.32-2.27,2.7-3.38,4.08
		c-1.63,2.18-2.89,4.74-3.11,7.48c0.11,0.98,0.52,1.89,0.81,2.82c-0.84-0.59-1.44-1.43-2.15-2.15c-1.16-1.08-2.3-2.18-3.59-3.1
		c-1.27-0.89-2.71-1.53-3.92-2.52c1.25,0.07,2.48,0.33,3.74,0.27c1.11-0.07,2.21-0.3,3.2-0.82c0.22-0.11,0.42-0.27,0.68-0.27
		c0.84-1.35,1.43-2.92,1.29-4.53c0.44-0.16,1-0.26,1.19-0.75c0.28-0.6-0.11-1.23-0.46-1.71c0.57-0.42,1.18-1.16,0.82-1.9
		c-0.35-0.49-0.84-0.86-1.19-1.35c0.28-0.16,0.58-0.27,0.87-0.41c0.38-0.43,0.79-0.93,0.83-1.53c0-0.36-0.26-0.63-0.55-0.8
		c-1.06-0.7-2.25-1.26-3.04-2.28c-0.32-0.43-0.6-0.94-0.59-1.49c-0.04-1.19,0.44-2.3,0.63-3.45c0.12-0.85,0.25-1.7,0.14-2.56
		c-0.22-2.01-1.19-3.85-2.35-5.48c-0.41-0.59-0.9-1.11-1.41-1.61c0.71-0.13,1.4-0.34,2.09-0.56c0.01,0.73-0.15,1.5,0.18,2.19
		c0.23,0.5,0.83,0.72,1.35,0.61c0.71-0.15,1.27-0.64,1.88-1.01c0.12,0.06,0.23,0.11,0.35,0.17c0,1.1,0.03,2.23,0.4,3.28
		c0.17,0.47,0.28,0.97,0.49,1.42c0.33,0.37,0.69,0.72,1.09,1.01c1.38,0.32,2.82-0.13,4.01-0.84c1.02-0.53,1.88-1.29,2.74-2.06
		c0.21-0.2,0.49-0.31,0.68-0.53c0.88-1.02,1.84-1.96,2.69-3C56.51,58.23,56.86,57.53,57.5,57.13z"/>
</g>
</svg>
